<?xml version="1.0" encoding="UTF-8" standalone="no"?>
<!-- Created with Inkscape (http://www.inkscape.org/) -->

<svg
   version="1.1"
   id="svg9"
   width="1024"
   height="1024"
   viewBox="0 0 1024 1024"
   sodipodi:docname="Adiseniar-logo.svg"
   inkscape:export-filename="adiseniar-logo.png"
   inkscape:export-xdpi="300"
   inkscape:export-ydpi="300"
   inkscape:version="1.2.2 (1:1.2.2+202212051552+b0a8486541)"
   xmlns:inkscape="http://www.inkscape.org/namespaces/inkscape"
   xmlns:sodipodi="http://sodipodi.sourceforge.net/DTD/sodipodi-0.dtd"
   xmlns="http://www.w3.org/2000/svg"
   xmlns:svg="http://www.w3.org/2000/svg">
  <defs
     id="defs13">
    <linearGradient
       id="linearGradient5969"
       inkscape:swatch="solid">
      <stop
         style="stop-color:#0066ff;stop-opacity:1;"
         offset="0"
         id="stop5967" />
    </linearGradient>
  </defs>
  <sodipodi:namedview
     id="namedview11"
     pagecolor="#ffffff"
     bordercolor="#000000"
     borderopacity="0.25"
     inkscape:showpageshadow="2"
     inkscape:pageopacity="0.0"
     inkscape:pagecheckerboard="0"
     inkscape:deskcolor="#d1d1d1"
     showgrid="false"
     inkscape:zoom="0.70710678"
     inkscape:cx="210.71782"
     inkscape:cy="503.46003"
     inkscape:window-width="1920"
     inkscape:window-height="1027"
     inkscape:window-x="0"
     inkscape:window-y="25"
     inkscape:window-maximized="1"
     inkscape:current-layer="layer3" />
  <g
     inkscape:groupmode="layer"
     id="layer3"
     inkscape:label="white-background"
     style="display:none">
    <rect
       style="display:inline;opacity:1;fill:#ffffff;fill-opacity:1;stroke-width:1.5;stroke-linecap:round;stroke-linejoin:round"
       id="rect858"
       width="1054.1117"
       height="1051.7096"
       x="-11.27301"
       y="-10.93685"
       rx="0.75590551"
       ry="0.75590551" />
  </g>
  <g
     inkscape:groupmode="layer"
     inkscape:label="Image"
     id="g15">
    <path
       style="fill:#5a7ed0;fill-opacity:1;fill-rule:evenodd;stroke:none;stroke-width:1;stroke-dasharray:none;stroke-opacity:1"
       d="m 494.03652,925.46941 c -47.435,-10.2804 -78.42324,-25.62603 -121.91693,-60.37428 -17.01378,-13.59276 -42.8462,-33.7467 -57.40538,-44.78653 l -26.47123,-20.0724 1.55883,-13.89619 c 0.85736,-7.64288 1.18822,-37.64267 0.73525,-66.66618 -1.13743,-72.88028 -2.04024,-76.42312 -38.92955,-152.76786 -34.23649,-70.85456 -41.42414,-90.98856 -48.77764,-136.63555 -12.80785,-79.50494 12.97799,-161.66798 73.35874,-233.7476 42.8377,-51.13759 94.12556,-77.46486 166.37093,-85.40216 48.38976,-5.31638 119.7386,1.36572 167.02512,15.64255 59.71426,18.02904 104.76211,52.33881 126.51049,96.35414 5.98754,12.11784 24.96948,61.41883 40.20422,104.42068 0,0 2.41497,12.39035 3.1674,18.65147 1.0339,8.60329 1.84381,25.93009 1.84381,25.93009 -0.99592,24.42042 -0.73647,28.27176 2.46366,36.57141 4.41691,11.45535 39.71046,71.93765 51.47437,88.21123 12.98723,17.96584 15.08316,22.81621 14.00245,32.40417 -1.18183,10.4852 -6.02439,14.8479 -22.55665,20.32144 -15.40985,5.10192 -25.88921,14.56728 -26.35469,23.80454 -0.65182,12.93477 0.77772,22.71896 4.11709,28.17861 4.36179,7.13124 4.36054,10.10991 -0.007,15.50563 -2.86418,3.53877 -5.67002,4.45613 -15.92199,5.20563 -12.27145,0.89713 -12.45216,0.986 -12.94913,6.3688 -0.42176,4.56821 0.61745,6.18426 6.3688,9.90386 18.68431,12.08384 21.53755,19.49051 9.81255,25.47215 -8.95868,4.57038 -18.07819,13.63139 -19.52627,19.40103 -1.33971,5.33778 -0.13921,21.71652 3.06426,41.80482 4.2377,26.5742 -2.38932,38.67251 -28.41065,51.86652 0,0 -10.03228,6.56298 -15.7419,7.9819 -18.635,4.63105 -57.59625,1.03037 -57.59625,1.03037 -75.67979,1.35387 -73.05948,-0.0337 -73.06844,38.69286 -0.007,28.12453 -2.80547,51.16112 -8.35636,68.77589 -5.78172,18.34723 -10.66399,25.27082 -21.66546,30.72411 -8.05778,3.99412 -11.79486,4.56302 -32.75117,4.98573 -19.38028,0.39091 -27.27303,-0.30685 -43.67173,-3.86088 z"
       id="path1106"
       sodipodi:nodetypes="csscsssssssssasssssssssssssssascssscc" />
    <path
       style="fill:#800000;fill-opacity:1;fill-rule:evenodd;stroke:none;stroke-width:1.41454;stroke-dasharray:none;stroke-opacity:1"
       d="m 341.03653,840.61777 c -21.2434,-16.59112 -42.05814,-32.6362 -46.25499,-35.65575 -7.54589,-5.42912 -7.61953,-5.55293 -6.63048,-11.1496 0.55008,-3.11274 0.9246,-31.12735 0.83226,-62.25468 -0.23464,-79.09799 -1.96593,-88.22347 -26.70887,-140.78049 -29.08122,-61.77208 -33.88087,-72.21971 -39.64976,-86.30764 -24.70696,-60.33572 -30.08792,-123.7407 -15.30086,-180.29323 13.95744,-53.37967 47.05466,-109.07697 88.34249,-148.6662 24.72589,-23.70864 54.22095,-41.34713 86.40302,-51.67027 l 13.72219,-4.40171 15.3644,7.86279 c 101.68116,52.03567 171.62622,185.18857 178.43054,339.67432 4.97221,112.88932 -23.3582,221.28219 -78.39571,299.94397 -27.7999,39.73273 -61.35437,70.57266 -96.79033,88.96006 -11.59404,6.01604 -33.33169,15.43597 -34.55437,14.97404 -0.10183,-0.0385 -17.56613,-13.6445 -38.80953,-30.23561 z"
       id="path7968" />
    <rect
       style="fill:#ffffff;fill-opacity:1;fill-rule:evenodd;stroke:none;stroke-width:1.06207;stroke-dasharray:none;stroke-opacity:1"
       id="rect8749-0"
       width="47.729706"
       height="53.033009"
       x="236.52722"
       y="183.4942"
       ry="2.4106081" />
    <rect
       style="fill:#800000;fill-opacity:1;fill-rule:evenodd;stroke:none;stroke-width:1.13818;stroke-dasharray:none;stroke-opacity:1"
       id="rect8749-2"
       width="54.093666"
       height="53.740116"
       x="225.14005"
       y="177.31265"
       ry="2.4427495" />
    <rect
       style="fill:#800000;fill-opacity:1;fill-rule:evenodd;stroke:none;stroke-width:1.17417;stroke-dasharray:none;stroke-opacity:1"
       id="rect8749-2-3"
       width="58.336304"
       height="53.033005"
       x="171.65019"
       y="118.44038"
       ry="2.4106081" />
    <rect
       style="fill:#800000;fill-opacity:1;fill-rule:evenodd;stroke:none;stroke-width:0.60071;stroke-dasharray:none;stroke-opacity:1"
       id="rect8749-2-3-2"
       width="27.930714"
       height="28.991377"
       x="244.48218"
       y="103.72287"
       ry="1.317799" />
    <rect
       style="fill:#ffffff;fill-opacity:1;fill-rule:evenodd;stroke:none;stroke-width:0.366759;stroke-dasharray:none;stroke-opacity:1"
       id="rect8749-64"
       width="17.08326"
       height="17.669048"
       x="256.45837"
       y="282.66547"
       ry="0.8031441" />
    <rect
       style="fill:#ffffff;fill-opacity:1;fill-rule:evenodd;stroke:none;stroke-width:0.396617;stroke-dasharray:none;stroke-opacity:1"
       id="rect8749-64-4"
       width="18.497473"
       height="19.083261"
       x="303.29245"
       y="210.36858"
       ry="0.86742699" />
    <rect
       style="fill:#800000;fill-opacity:1;fill-rule:evenodd;stroke:none;stroke-width:0.429007;stroke-dasharray:none;stroke-opacity:1"
       id="rect8749-2-3-5"
       width="20.859646"
       height="19.798988"
       x="197.10602"
       y="81.095451"
       ry="0.89996028" />
    <rect
       style="fill:#800000;fill-opacity:1;fill-rule:evenodd;stroke:none;stroke-width:0.264929;stroke-dasharray:none;stroke-opacity:1"
       id="rect8749-2-3-0"
       width="12.374364"
       height="12.727921"
       x="250.13905"
       y="148.49243"
       ry="0.57854587" />
  </g>
  <g
     inkscape:groupmode="layer"
     id="layer2"
     inkscape:label="squares">
    <rect
       style="fill:#ffffff;fill-opacity:1;fill-rule:evenodd;stroke:none;stroke-width:1.31281;stroke-dasharray:none;stroke-opacity:1"
       id="rect8749"
       width="64.346718"
       height="60.104076"
       x="304.05591"
       y="255.97266"
       ry="2.7320225" />
    <rect
       style="fill:#ffffff;fill-opacity:1;fill-rule:evenodd;stroke:none;stroke-width:0.969999;stroke-dasharray:none;stroke-opacity:1"
       id="rect8749-4"
       width="47.022598"
       height="44.901279"
       x="341.17902"
       y="177.4838"
       ry="2.0409815" />
    <rect
       style="fill:#ffffff;fill-opacity:1;fill-rule:evenodd;stroke:none;stroke-width:1.11197;stroke-dasharray:none;stroke-opacity:1"
       id="rect8749-6"
       width="52.675144"
       height="52.675144"
       x="248.60187"
       y="336.05322"
       ry="2.3943415" />
  </g>
  <g
     inkscape:groupmode="layer"
     id="layer1"
     inkscape:label="circle">
    <ellipse
       style="fill:none;fill-opacity:1;fill-rule:evenodd;stroke:none;stroke-width:1.11451;stroke-dasharray:none;stroke-opacity:1"
       id="path7787"
       cx="325.26913"
       cy="492.85342"
       rx="268.64331"
       ry="388.14438" />
  </g>
</svg>
